<svg width="688" height="606" viewBox="0 0 688 606" fill="none" xmlns="http://www.w3.org/2000/svg">
<path d="M364.961 490.514L290.008 565.468L265.966 541.426M364.961 490.514L445.925 571.478L495.423 521.981L414.459 441.017M364.961 490.514L414.459 441.017M414.459 441.017L547.395 308.081M547.395 308.081L628.359 389.045L686.341 331.062L605.378 250.098M547.395 308.081L605.378 250.098M605.378 250.098L680.331 175.145L641.794 136.608L658.587 92.9437M202.327 477.787L160.961 436.421L551.284 46.0979L644.976 18.8743L675.381 49.2799L661.632 85.028M202.327 477.787L1.50852 490.514L26.9644 605.066L265.966 541.426M202.327 477.787L234.147 509.606M265.966 541.426L234.147 509.606M234.147 509.606L54.188 543.194M658.587 92.9437L672.023 106.379L677.503 100.899L661.632 85.028M658.587 92.9437L661.632 85.028M587.346 46.0979L602.549 61.3007L615.631 48.2192L604.317 36.9055L587.346 46.0979ZM503.908 55.9974L532.546 27.3595L543.859 38.6733L453.35 129.183L442.036 117.869L472.795 87.1101L417.641 31.9557L448.754 0.843038L503.908 55.9974Z" stroke="black"/>
</svg>
